<svg version="1.1" xmlns="http://www.w3.org/2000/svg" xmlns:xlink="http://www.w3.org/1999/xlink" width="202.49896" height="357.87574" viewBox="0,0,202.49896,357.87574"><g transform="translate(-130.19546,-15.52082)"><g data-paper-data="{&quot;isPaintingLayer&quot;:true}" fill-rule="nonzero" stroke-linecap="butt" stroke-linejoin="miter" stroke-miterlimit="10" stroke-dasharray="" stroke-dashoffset="0" style="mix-blend-mode: normal"><path d="M215.69546,93.65624c45.0112,0 81.5,34.25022 81.5,76.5c0,42.24979 -36.4888,76.5 -81.5,76.5c-45.0112,0 -81.5,-34.25021 -81.5,-76.5c0,-42.24978 36.4888,-76.5 81.5,-76.5z" data-paper-data="{&quot;index&quot;:null}" fill="#fffed6" stroke="#000000" stroke-width="8"/><path d="M189.19546,225.65622c13.06624,0 23.79128,10.02392 24.90464,22.80129c0.18164,0.05738 0.37566,0.11349 0.5831,0.16824c1.50646,0.39762 2.95502,-1.26971 4.51226,-1.21953c1.97882,0.06376 3.79591,1.95503 5.73381,1.54968c0.8555,-1.25574 1.87246,-2.39266 3.02101,-3.38091c0.39071,-0.59779 0.79945,-1.13566 1.27253,-1.47346c1.13888,-0.81321 2.45012,-1.26222 3.82865,-1.56904c1.90865,-0.72772 3.97978,-1.12628 6.144,-1.12628c3.17295,0 6.14581,0.85667 8.69991,2.35133c3.20845,0.86715 5.50165,3.98482 6.91545,7.55948c0.97083,2.06203 1.54526,4.34752 1.62504,6.75824c0.12874,1.32414 0.13127,2.55157 0.0096,3.58096c-0.23785,2.01235 -0.99378,3.73129 -1,5.79929c-0.01176,3.91051 0.18899,7.73576 0.43508,11.46972c10.99723,2.33982 19.40663,11.24137 28.28189,17.64371c1.10423,0.79655 2.59749,1.34192 4.00245,1.91635c0.41907,-2.26669 1.18826,-4.31078 2.4759,-5.80173c8.06253,-9.33557 25.61542,-10.15222 35.14641,-1.9828c3.12547,2.67898 4.33932,6.83198 5.88629,10.5447l-0.07959,0.39326c0.55655,7.23515 2.77069,17.85025 -1.30468,24.64253c-4.17195,6.95325 -15.11243,13.70127 -23.8023,11.50529c-2.46045,1.35121 -5.28621,2.11971 -8.29145,2.11971c-5.3077,0 -10.05551,-2.39717 -13.21983,-6.16792c-9.94203,2.94424 -23.20219,1.13524 -30.39267,1.16792c-0.94299,0.00428 -2.01935,-0.07274 -3.13751,-0.22403c-0.00163,1.79189 -0.17247,3.39128 -0.49146,4.81969c1.01797,0.26646 1.97689,0.61579 2.86647,1.06058c11.54803,5.77402 11.54803,24.41348 0,30.1875c-2.65062,1.32531 -5.66227,2.08944 -8.625,2.15625c-28.99263,0.65376 -58.00737,0.65376 -87,0c-4.93117,-0.11119 -11.87035,-2.57974 -14.55469,-7.27734c-4.80167,-8.40293 -3.30856,-20.44728 5.92969,-25.06641c2.65062,-1.32531 5.70868,-1.62963 8.625,-2.15625c1.08771,-0.19641 2.64055,0.87498 3.3159,0c0.99401,-1.28785 -2.26056,-2.48246 -2.74477,-4.03557c-1.07225,-3.43922 -1.92861,-7.16045 -1.92861,-10.75013c0,-3.33478 1.46219,-9.77151 3.89291,-12.60735c0.4229,-0.49338 4.34205,-3.38036 4.49691,-4.44281c0.11276,-0.7736 -3.96637,-5.98316 -4.39713,-8.45922c-0.31573,-1.81484 -0.83985,-3.61339 -0.88521,-5.45493c-0.20203,-8.20168 0.03522,-16.40841 0,-24.6125c-0.01322,-3.07837 0.6336,-8.58413 2.70106,-11.16197c0.6222,-0.7758 1.24322,-1.51473 1.86797,-2.22085c-0.20993,-1.30391 -0.31903,-2.64155 -0.31903,-4.00468c0,-13.80712 11.19288,-25 25,-25z" data-paper-data="{&quot;index&quot;:null}" fill="#000000" stroke="none" stroke-width="0.5"/><path d="M236.38092,124.65626h-2.18544l-3.90625,-0.39063l-0.08302,-0.02641l-0.08711,-0.00119l-2.5764,-0.58177h-7.41584l-0.23576,0.13544l-1.85096,-0.13544h-2.84467l-3.90625,-0.39063l-0.4218,-0.13421l-2.30108,-0.16837l-2.83227,-1.46497l-3.0386,-0.96683l-1.74617,-1.50805l-0.39315,-0.20336l-1.34062,-1.09687c-6.24701,1.62013 -13.06857,3.14276 -19.2808,3.09669c-0.57198,0.05726 -1.15219,0.08659 -1.73925,0.08659c-2.74287,0 -5.33623,-0.64017 -7.6388,-1.77926c-2.69607,-1.12924 -5.05625,-2.89372 -6.91588,-5.49808c-0.81321,-1.13888 -1.26222,-2.45012 -1.56904,-3.82865c-0.72772,-1.90865 -1.12628,-3.97978 -1.12628,-6.144c0,-1.4783 0.18596,-2.91316 0.53575,-4.28247c-2.75549,-6.31702 -2.14619,-14.6686 0.86874,-21.50685l-0.61589,-1.23178l-0.41361,-0.47891l-0.30476,-0.95783l-0.18092,-0.36183l-1.39754,-3.66855l-0.28789,-1.83527l-0.56327,-1.77027l-0.39062,-3.90625v-0.40454l-0.15576,-0.993l0.15576,-0.61332v-6.97827l-0.15576,-0.61332l0.15576,-0.993v-0.40454l0.39063,-3.90625l0.56327,-1.77027l0.28789,-1.83527l1.39754,-3.66855l0.18092,-0.36183l0.30476,-0.95783l0.41361,-0.47891l0.10071,-0.20143l2.09631,-3.31916l0.06075,-0.06244l0.04002,-0.07738l2.48592,-3.03835l2,-2l3.03835,-2.48592l0.07738,-0.04002l0.06244,-0.06075l3.31916,-2.09631l2,-1l3.66855,-1.39754l8.90933,-1.39754l11.00565,2.79508l1.18217,1.32735l1.3995,-0.53314l1.51514,-1.30853l3.0386,-0.96683l0.7981,-0.41281l1.17533,-0.8566l3.58227,-1.60584l0.38378,-0.12793l0.89279,-0.46179l0.39948,-0.02923l0.04931,-0.02465l1.31724,-0.50181l0.10483,-0.06471l1.12726,-0.40466l1.11922,-0.42637l0.12171,-0.01909l1.32669,-0.47625l4,-1l1.92359,-0.2815l0.23355,-0.07431l0.86604,-0.0866l0.12694,-0.01858l0.00758,-0.00253l3.82932,-0.86469l0.08711,-0.00119l0.08302,-0.02641l3.90625,-0.39063h7.06861l0.23576,-0.13544l1.85096,0.13544h2.84467l3.90625,0.39062l0.4218,0.13421l2.30108,0.16837l2.83227,1.46497l3.0386,0.96683l1.74617,1.50805l0.39315,0.20336l3.03835,2.48592l2.01148,2.01148l1.4046,1.21306l0.07094,0.26248l2.51298,2.51298l0.71843,0.87808l0.80943,0.79498l5,6l0.74835,1.10552l0.84737,1.03158l6,9l0.27983,0.52673l0.35624,0.47838l3,5l0.41007,0.86936l0.4916,0.77837l1.661,2.21467l1.16173,1.92133l1.19895,1.89833l1,2l0.63116,1.65681l0.72524,1.61784l0.40536,1.21608l0.04115,0.05029l0.04002,0.07738l0.06075,0.06244l2.09631,3.31916l1,2l0.63116,1.65681l0.72524,1.61784l1,3l0.86469,3.82932l0.00119,0.08711l0.02641,0.08302l0.09678,0.96776l1.01093,3.03279l0.86469,3.82932l0.00119,0.08711l0.02641,0.08302l0.39063,3.90625v15l-0.39062,3.90625l-0.17681,0.55569l0.1492,2.57907l-2.0848,3.50424l-0.62197,1.95475l-1.7388,2.01335l-1.36017,2.28625l-1.65776,1.20819l-2.66514,3.08596l-2.4939,0.67403l-0.47126,0.34346l-3.58227,1.60584l-3,1l-3.82932,0.86469l-0.08711,0.00119l-0.08302,0.02641l-3.90625,0.39062h-8.98913l-0.61332,0.15576l-0.993,-0.15576h-0.40454l-3.90625,-0.39063l-1.77027,-0.56327l-1.83527,-0.28789l-3.66855,-1.39754l-0.36183,-0.18092l-0.95783,-0.30476l-0.47891,-0.41361l-0.20143,-0.10071l-1.31434,-0.83011l-1.37283,-0.72932l-4.70496,-3.13664l-4.15329,-2.07665l-1.33763,-0.33441l-1.59407,-0.57223l-1.62731,-0.46942z" data-paper-data="{&quot;index&quot;:null}" fill="#ffea00" stroke="none" stroke-width="0.5"/><path d="M223.44546,185.65623v-2c0.05311,-3.94921 1.04231,-6.98534 1.00012,-10.98898c-0.00004,-0.00367 -0.00008,-0.00735 -0.00012,-0.01102c0,0 0,-0.43422 0.14776,-1.00715c-0.86086,-3.55515 -2.7431,-2.27644 -6.46631,-3.39831c-3.28073,-0.98854 -5.91327,-2.37865 -8.9003,-3.88633c-4.25344,-2.14688 -9.14004,-3.5993 -11.4957,-8.27314c-0.66675,-1.32288 -0.1903,-2.95671 -0.28545,-4.43506c0,0 0,-3.75 3.75,-3.75c3.75,0 3.75,3.75 3.75,3.75c-0.66555,3.64871 5.17709,4.78421 7.63525,6c2.60264,1.28724 4.84041,2.55641 7.6833,3.40546c4.62037,1.3799 6.45856,0.21319 9.9116,4.31831c0.94067,1.11831 1.05161,2.72691 1.57741,4.09037l0.17659,2.92347c0.01585,0.16435 0.01585,0.26238 0.01585,0.26238c-0.00003,0.00249 -0.00005,0.00497 -0.00007,0.00745c-0.03587,4.00419 -1.07678,7.18455 -0.99993,10.99255v2c0,0 0,3.75 -3.75,3.75c-3.75,0 -3.75,-3.75 -3.75,-3.75z" data-paper-data="{&quot;index&quot;:null}" fill="#000000" stroke="none" stroke-width="0.5"/><path d="M250.19545,180.40625c-3.75,0 -3.75,-3.75 -3.75,-3.75v-3c0,-4.7314 0.29686,-8.81905 1.0281,-13.45819c0.20684,-1.3122 -0.2641,-2.75511 0.25736,-3.97688c2.90881,-6.8152 11.02325,-7.68508 17.15525,-8.30216c3.10572,-0.31254 6.18791,-1.00073 9.3093,-1.01278c0,0 3.75,0 3.75,3.75c0,3.75 -3.75,3.75 -3.75,3.75c-4.74181,-0.02252 -10.32713,0.36491 -14.81415,1.80756c-1.15158,0.37025 -4.25745,1.47731 -4.72131,2.8775c-0.21378,0.64532 0.34055,1.34842 0.25736,2.02312c-0.16818,1.36404 -0.79803,2.64055 -1,4c-0.39778,2.67742 0.0281,5.83276 0.0281,8.54181v3c0,0 0,3.75 -3.75,3.75z" data-paper-data="{&quot;index&quot;:null}" fill="#000000" stroke="none" stroke-width="0.5"/><path d="M248.87252,219.30212c3.3541,1.67705 1.67705,5.03115 1.67705,5.03115l-4.3541,4.07295c-7.62938,0 -13.49944,-0.31914 -20.08013,-4.62981c0,0 -3.12019,-2.08012 -1.04006,-5.20031c2.08012,-3.12019 5.20031,-1.04006 5.20031,-1.04006c4.53184,3.09162 8.60846,3.35486 13.60473,3.37093c0.26919,-0.47915 1.93325,-3.13431 4.99219,-1.60484z" data-paper-data="{&quot;index&quot;:null}" fill="#000000" stroke="none" stroke-width="0.5"/></g></g></svg>